Coordinates
version=1
nRows=18
nColumns=28
inDegrees=yes

Units are S.I. units (second, meters, Newtons, ...)
Angles are in degrees.

endheader
time	pelvis_tilt	pelvis_list	pelvis_rotation	pelvis_tx	pelvis_ty	pelvis_tz	hip_flexion_r	hip_adduction_r	hip_rotation_r	knee_angle_r	ankle_angle_r	subtalar_angle_r	mtp_angle_r	hip_flexion_l	hip_adduction_l	hip_rotation_l	knee_angle_l	socket_flexion	socket_adduction	socket_rotation	socket_tx	socket_ty	socket_tz	foot_flex	lumbar_extension	lumbar_bending	lumbar_rotation
      0.97916667	     10.13156549	     -0.95573529	     -8.17444814	      0.40224788	      1.03176651	      0.28641451	     -5.23257261	      7.47823089	     12.06263626	    -17.86133162	      8.44551298	    -19.44716730	     20.11132465	     -6.63010149	     -5.70612664	    -11.31646435	    -57.69989708	      0.00000000	      0.00000000	      0.00000000	      0.00000000	      0.00000000	      0.00000000	      3.95944128	    -18.78972573	     -2.06372529	     13.41614873
      0.98333333	     10.18296545	     -0.79653396	     -8.44296060	      0.40690662	      1.03263497	      0.28684094	     -5.71543286	      7.17081766	     12.16210212	    -17.54479249	      8.41913320	    -19.21315299	     20.20551921	     -6.12715905	     -5.61906873	    -11.26426591	    -57.42907911	      0.00000000	      0.00000000	      0.00000000	      0.00000000	      0.00000000	      0.00000000	      3.94817188	    -18.80973460	     -2.35227150	     13.65518306
      0.98750000	     10.22453975	     -0.66217523	     -8.70259948	      0.41148140	      1.03342364	      0.28728536	     -6.16731352	      6.89564997	     12.22447205	    -17.25551262	      8.39842604	    -19.00751047	     20.28771333	     -5.60535447	     -5.56841001	    -11.22433390	    -57.15750775	      0.00000000	      0.00000000	      0.00000000	      0.00000000	      0.00000000	      0.00000000	      3.94736404	    -18.83502888	     -2.60700859	     13.85965017
      0.99166667	     10.25437307	     -0.53117780	     -8.95300104	      0.41602427	      1.03416363	      0.28765505	     -6.61343819	      6.61955160	     12.29461467	    -16.94865103	      8.37300536	    -18.79571794	     20.36665702	     -5.07495819	     -5.50808024	    -11.15479613	    -56.84703730	      0.00000000	      0.00000000	      0.00000000	      0.00000000	      0.00000000	      0.00000000	      3.94257068	    -18.84769686	     -2.84635943	     14.06306975
      0.99583333	     10.27039732	     -0.41339116	     -9.18808114	      0.42057510	      1.03487825	      0.28802057	     -7.03928352	      6.36337828	     12.36869190	    -16.64428156	      8.33559195	    -18.56468186	     20.45273532	     -4.55040363	     -5.45593796	    -11.05802494	    -56.46684489	      0.00000000	      0.00000000	      0.00000000	      0.00000000	      0.00000000	      0.00000000	      3.92344596	    -18.84916276	     -3.08105536	     14.28174542
      1.00000000	     10.28208571	     -0.31551226	     -9.41440836	      0.42503968	      1.03552442	      0.28838091	     -7.44371248	      6.12772715	     12.41663405	    -16.37166020	      8.29793661	    -18.34265179	     20.53945031	     -4.01368891	     -5.43209583	    -10.96434694	    -56.08066082	      0.00000000	      0.00000000	      0.00000000	      0.00000000	      0.00000000	      0.00000000	      3.90842028	    -18.85634097	     -3.28351916	     14.48999867
      1.00416667	     10.30788075	     -0.21212982	     -9.74324696	      0.42943551	      1.03611138	      0.28879994	     -7.75986418	      5.84970625	     12.33613109	    -16.27364010	      8.33875769	    -17.58848725	     21.26451570	     -3.53157284	     -5.38284508	    -10.97979665	    -55.62427859	      0.00000000	      0.00000000	      0.00000000	      0.00000000	      0.00000000	      0.00000000	      3.87039858	    -18.86462947	     -3.56594540	     15.16206442
      1.00833333	     10.27751626	     -0.14109344	     -9.91207716	      0.43384849	      1.03664297	      0.28906354	     -8.12609811	      5.65606252	     12.35868163	    -15.98709470	      8.31112568	    -17.45965166	     21.33012401	     -2.95164581	     -5.38812469	    -10.82085972	    -55.17850297	      0.00000000	      0.00000000	      0.00000000	      0.00000000	      0.00000000	      0.00000000	      3.87411761	    -18.84338268	     -3.70434236	     15.18686093
      1.01250000	     10.29913730	     -0.16908658	    -10.13084749	      0.43778140	      1.03712746	      0.28938182	     -8.39947208	      5.57726515	     12.31010584	    -15.97549323	      8.30780651	    -17.43682964	     21.34001240	     -2.39940612	     -5.51035451	    -10.75037139	    -54.79368584	      0.00000000	      0.00000000	      0.00000000	      0.00000000	      0.00000000	      0.00000000	      3.89813678	    -18.98005944	     -3.75736237	     15.19890468
      1.01666667	     10.17187234	     -0.05172591	    -10.20296355	      0.44245146	      1.03752470	      0.28950483	     -8.78381461	      5.34155123	     12.36980591	    -15.43522097	      8.13826908	    -17.09823410	     21.47165720	     -1.73524683	     -5.45989436	    -10.46246371	    -54.23181645	      0.00000000	      0.00000000	      0.00000000	      0.00000000	      0.00000000	      0.00000000	      3.82527250	    -18.78825897	     -3.93156885	     15.40070951
      1.02083333	     10.12288589	     -0.04756535	    -10.36621298	      0.44664555	      1.03791504	      0.28970292	     -9.07240929	      5.22659630	     12.36208292	    -15.25084249	      8.11551770	    -16.97778815	     21.53372338	     -1.16180135	     -5.52489608	    -10.28960406	    -53.68693658	      0.00000000	      0.00000000	      0.00000000	      0.00000000	      0.00000000	      0.00000000	      3.81165037	    -18.77791107	     -3.98029811	     15.48091226
      1.02500000	     10.03154674	     -0.03813893	    -10.48510568	      0.45088878	      1.03821193	      0.28985233	     -9.36331880	      5.11492331	     12.36937661	    -14.97026166	      8.05779589	    -16.79857857	     21.60690974	     -0.53837521	     -5.59346059	    -10.08773117	    -53.13246971	      0.00000000	      0.00000000	      0.00000000	      0.00000000	      0.00000000	      0.00000000	      3.77354625	    -18.72146939	     -4.04580328	     15.59496506
      1.02916667	      9.89320510	     -0.04091038	    -10.56575919	      0.45508764	      1.03840548	      0.28997915	     -9.59903113	      5.03745191	     12.35150953	    -14.69755888	      7.96515515	    -16.58447437	     21.70962356	      0.14529361	     -5.69275052	     -9.87236617	    -52.56994092	      0.00000000	      0.00000000	      0.00000000	      0.00000000	      0.00000000	      0.00000000	      3.74456818	    -18.62849630	     -4.08342640	     15.73309343
      1.03333333	      9.83448301	     -0.09407199	    -10.71700275	      0.45904696	      1.03863377	      0.29015038	     -9.82087763	      4.99677332	     12.33081081	    -14.62780098	      7.94309200	    -16.50243843	     21.75239403	      0.70943771	     -5.81605788	     -9.69229818	    -51.94412763	      0.00000000	      0.00000000	      0.00000000	      0.00000000	      0.00000000	      0.00000000	      3.73431262	    -18.65749478	     -4.06682723	     15.78756414
      1.03750000	      9.66126647	     -0.12945369	    -10.76650658	      0.46325107	      1.03871006	      0.29021786	    -10.05178336	      4.96136451	     12.32139383	    -14.29222379	      7.87381026	    -16.29874686	     21.83567984	      1.40504032	     -5.94783317	     -9.45044133	    -51.32268548	      0.00000000	      0.00000000	      0.00000000	      0.00000000	      0.00000000	      0.00000000	      3.66530982	    -18.52730248	     -4.05648419	     15.91044482
      1.04166667	      9.16422858	     -0.12368960	    -10.77528889	      0.46741828	      1.03825517	      0.29020981	     -9.78280728	      4.95986056	     12.11485381	    -14.24414527	      7.78320329	    -15.99135292	     22.37485635	      2.50714116	     -6.09607354	     -9.13306182	    -50.76176304	      0.00000000	      0.00000000	      0.00000000	      0.00000000	      0.00000000	      0.00000000	      3.66388099	    -18.03204311	     -4.00350512	     15.96693123
      1.04583333	      9.07494316	     -0.09057293	    -10.71341957	      0.47000951	      1.03874103	      0.29143685	     -9.89833221	      5.03488486	     12.21547182	    -14.17678757	      7.74104797	    -16.02871772	     22.36960582	      3.14020803	     -6.28720416	     -9.08400704	    -49.92762861	      0.00000000	      0.00000000	      0.00000000	      0.00000000	      0.00000000	      0.00000000	      3.39099470	    -18.17399739	     -4.22949513	     15.93366066
      1.05000000	      8.93718574	     -0.17342667	    -10.86732192	      0.47439493	      1.03871523	      0.29161692	    -10.14972547	      5.02668679	     12.27606820	    -13.93192818	      7.68288922	    -16.01611325	     22.36748889	      3.71134622	     -6.43825433	     -8.91058556	    -49.19705114	      0.00000000	      0.00000000	      0.00000000	      0.00000000	      0.00000000	      0.00000000	      3.35806901	    -18.06526155	     -4.17363290	     15.98841132
